<?xml version="1.0" standalone="no"?>
<!DOCTYPE svg PUBLIC "-//W3C//DTD SVG 20010904//EN"
 "http://www.w3.org/TR/2001/REC-SVG-20010904/DTD/svg10.dtd">
<svg version="1.0" xmlns="http://www.w3.org/2000/svg"
 width="1080.000000pt" height="1080.000000pt" viewBox="0 0 1080.000000 1080.000000"
 preserveAspectRatio="xMidYMid meet">

<g transform="translate(0.000000,1080.000000) scale(0.100000,-0.100000)"
fill="#000000" stroke="none">
<path d="M5005 9736 c-17 -7 -35 -19 -42 -27 -6 -8 -61 -209 -122 -448 -101
-397 -113 -437 -140 -464 -24 -25 -63 -40 -229 -88 -203 -58 -233 -62 -285
-33 -9 5 -163 137 -342 294 -180 157 -339 290 -353 297 -48 22 -72 14 -196
-58 -235 -138 -564 -356 -596 -394 -7 -8 35 -146 142 -463 143 -427 151 -454
140 -489 -7 -25 -60 -94 -151 -199 -175 -202 -189 -214 -249 -214 -26 0 -233
27 -460 61 -249 37 -426 59 -446 55 -18 -4 -42 -16 -53 -29 -11 -12 -91 -182
-178 -377 l-158 -354 14 -39 c12 -34 60 -76 359 -316 217 -174 352 -289 364
-310 l20 -35 -28 -225 c-32 -261 -39 -291 -69 -327 -15 -17 -156 -87 -432
-212 -388 -177 -411 -189 -429 -223 l-20 -37 63 -382 c35 -212 69 -393 77
-405 8 -12 26 -27 40 -34 14 -6 225 -32 468 -57 422 -44 442 -47 474 -71 26
-20 59 -76 144 -247 100 -202 109 -225 105 -266 -4 -38 -34 -92 -202 -350
-287 -442 -285 -439 -285 -482 0 -31 12 -52 81 -139 120 -150 398 -443 455
-479 61 -39 73 -34 509 186 370 187 413 207 445 201 19 -4 125 -60 234 -125
162 -95 202 -123 218 -152 17 -32 18 -66 18 -487 l0 -453 28 -30 c25 -27 55
-36 412 -126 409 -102 434 -105 476 -62 12 13 115 183 229 378 114 195 219
370 232 388 41 54 62 60 279 70 220 11 241 8 285 -45 13 -16 125 -188 249
-382 227 -357 246 -381 303 -381 13 0 196 59 408 130 455 155 439 144 439 270
0 44 -7 254 -16 466 -16 411 -16 420 29 462 12 12 80 62 152 111 116 82 134
91 174 91 37 0 115 -33 446 -185 221 -102 411 -185 423 -185 11 0 31 4 44 9
32 12 567 672 574 708 3 15 1 39 -4 53 -5 14 -123 187 -262 385 -139 198 -256
370 -261 383 -17 44 -9 77 54 222 49 114 69 149 93 165 25 17 112 32 475 83
273 39 453 69 466 78 12 7 28 24 34 36 7 13 36 214 64 448 56 454 56 460 9
501 -11 9 -192 88 -404 174 -441 180 -451 185 -473 219 -17 26 -57 242 -57
308 0 20 5 49 12 63 6 14 164 156 350 316 186 161 346 305 354 322 10 18 14
43 11 61 -9 51 -355 779 -383 803 -14 13 -35 25 -48 29 -13 3 -223 -31 -467
-76 -334 -62 -450 -80 -473 -73 -39 11 -229 222 -252 280 -20 52 -30 10 125
531 123 413 128 435 93 478 -14 17 -477 319 -678 443 -54 33 -95 38 -130 18
-12 -7 -165 -146 -340 -310 -243 -227 -327 -300 -357 -309 -35 -11 -53 -7
-215 41 -135 41 -184 60 -205 80 -24 24 -45 87 -157 472 -112 388 -132 446
-155 465 -25 20 -43 21 -288 27 -398 10 -567 8 -602 -7z m559 -1418 c9 -89 26
-620 20 -629 -3 -5 -31 -9 -63 -9 -57 0 -59 1 -65 31 -3 17 -6 82 -7 143 -1
61 -4 138 -8 171 -5 55 -8 42 -30 -141 l-23 -201 -64 -10 c-61 -9 -65 -8 -69
11 -3 12 -21 98 -40 191 -20 94 -38 175 -40 180 -3 6 -2 -78 1 -187 l5 -196
-63 -4 c-35 -2 -64 -3 -65 -3 -1 0 -8 154 -15 342 l-13 341 59 6 c32 3 81 6
107 6 46 0 48 -1 54 -32 3 -18 19 -103 34 -188 31 -176 30 -179 52 80 7 74 17
138 23 142 6 4 55 8 108 8 l97 0 5 -52z m345 6 l113 -18 -7 -60 c-3 -33 -9
-64 -12 -69 -5 -8 -75 -3 -115 9 -14 4 -19 -5 -25 -48 -4 -29 -8 -57 -8 -63 0
-5 27 -14 60 -20 33 -5 59 -14 59 -20 -1 -5 -5 -36 -9 -68 -6 -57 -7 -58 -33
-53 -104 21 -100 21 -107 -18 -4 -20 -5 -43 -1 -51 3 -9 2 -13 -4 -10 -6 4
-10 -7 -10 -24 0 -29 1 -30 65 -36 36 -4 67 -10 69 -14 2 -3 -1 -36 -8 -72
l-11 -66 -138 23 c-76 12 -140 24 -142 26 -4 3 88 604 100 656 5 19 11 23 28
19 12 -3 73 -14 136 -23z m459 -113 c48 -25 80 -60 92 -101 11 -37 8 -55 -22
-148 -22 -69 -12 -66 -110 -35 l-46 15 14 46 c26 84 27 99 9 106 -9 3 -21 4
-26 1 -14 -9 -131 -385 -125 -401 14 -35 41 -8 68 66 16 48 31 74 40 72 44 -8
118 -38 118 -47 0 -24 -50 -157 -69 -184 -52 -73 -176 -74 -254 -2 -35 33 -41
44 -45 93 -4 48 4 81 58 244 34 104 73 207 88 229 14 22 25 44 24 48 -1 5 2 6
8 2 5 -3 18 -1 27 4 29 17 111 13 151 -8z m-1796 -10 c52 -41 112 -235 79
-255 -15 -10 -14 -26 2 -26 27 0 50 -42 98 -177 27 -76 49 -139 49 -140 0 -4
-132 -45 -134 -42 -2 2 -22 57 -45 122 -48 140 -57 157 -76 157 -22 0 -19 -15
30 -155 25 -71 44 -133 42 -138 -1 -5 -31 -20 -65 -33 l-63 -23 -8 22 c-34 90
-210 596 -213 611 -2 15 15 25 102 56 120 44 166 49 202 21z m2392 -52 c8 -8
-54 -119 -66 -119 -9 0 -124 31 -166 45 -9 4 -7 15 8 46 l22 41 98 -4 c55 -2
101 -6 104 -9z m-69 -178 c5 -9 -228 -602 -251 -639 -4 -6 -114 60 -114 68 0
4 7 24 15 43 20 49 19 54 -15 72 l-30 16 -27 -46 c-16 -25 -31 -45 -36 -45
-21 0 -116 63 -110 73 4 7 56 88 116 182 61 93 110 175 110 182 0 7 3 10 7 8
3 -2 34 41 69 95 l63 99 98 -49 c54 -27 101 -54 105 -59z m-2748 39 l33 -60
-35 -17 c-19 -9 -32 -20 -29 -25 3 -5 2 -7 -3 -6 -4 1 -18 -1 -30 -6 l-23 -7
21 -42 c35 -69 35 -69 90 -42 26 14 53 25 58 25 10 0 61 -90 61 -108 0 -5 -22
-21 -50 -36 -27 -15 -50 -29 -50 -32 0 -6 46 -94 58 -112 7 -11 18 -9 55 9 25
12 44 25 42 29 -2 3 7 7 19 8 18 1 28 -10 51 -58 16 -33 27 -61 24 -63 -28
-24 -243 -127 -250 -120 -4 4 -79 139 -164 298 -156 289 -157 290 -135 305 27
18 213 120 220 120 3 0 20 -27 37 -60z m3008 -201 c30 -23 55 -43 55 -45 0 -3
-28 -59 -61 -127 -34 -67 -59 -119 -55 -116 3 3 39 49 80 103 41 53 77 98 81
99 11 3 105 -67 105 -78 0 -5 -86 -122 -191 -260 -105 -137 -197 -258 -204
-268 -12 -17 -16 -16 -64 18 -28 21 -56 46 -62 57 -6 11 -7 18 -2 15 5 -3 37
51 72 121 35 70 59 123 54 117 -31 -33 -146 -191 -146 -200 0 -6 -9 -12 -21
-13 -28 -2 -115 66 -113 89 1 10 4 16 8 13 4 -2 58 65 122 149 188 250 279
367 284 367 2 0 28 -19 58 -41z m-3377 -225 c79 -107 148 -191 153 -188 5 3 7
-1 4 -8 -2 -7 4 -24 15 -36 l20 -24 37 29 c64 49 109 78 95 61 -11 -14 -8 -23
19 -62 18 -25 31 -47 28 -49 -60 -48 -207 -150 -217 -151 -8 -1 -105 119 -214
266 -193 259 -199 268 -184 290 9 12 16 19 16 14 0 -4 17 6 38 23 20 17 39 30
42 30 3 0 70 -88 148 -195z m3748 -86 c24 -24 44 -47 44 -53 0 -6 -108 -118
-240 -250 l-240 -240 -45 45 c-25 24 -45 48 -45 54 0 9 469 486 478 486 3 0
24 -19 48 -42z m-4011 -208 l189 -190 23 22 c12 11 20 26 16 32 -3 6 -2 8 2 3
5 -4 20 4 35 18 l26 25 42 -43 42 -43 -100 -99 -100 -100 -242 242 -243 243
50 50 c33 34 52 46 60 40 6 -5 96 -95 200 -200z m2250 157 c299 -57 557 -161
796 -321 150 -100 155 -105 277 -221 349 -334 555 -732 627 -1210 20 -136 20
-451 -1 -592 -52 -350 -195 -690 -407 -968 -26 -33 -56 -70 -68 -81 -13 -13
-18 -27 -14 -35 5 -7 4 -10 -2 -6 -5 3 -30 -14 -54 -40 -218 -225 -481 -400
-769 -510 -243 -92 -398 -122 -685 -129 -247 -7 -359 4 -565 56 -306 77 -602
231 -843 439 -49 42 -94 75 -100 73 -7 -2 -9 -1 -5 3 4 4 -30 49 -75 99 -98
109 -128 146 -144 172 -6 10 -16 18 -23 16 -6 -1 -9 2 -6 7 3 5 -19 48 -49 96
-30 48 -57 95 -60 106 -4 11 -11 16 -18 13 -7 -4 -9 -4 -5 0 3 4 -17 55 -44
114 -129 274 -188 551 -188 875 1 316 55 573 180 849 29 62 52 119 53 125 0 7
3 11 5 8 9 -9 62 97 55 109 -3 6 -3 8 2 4 7 -7 105 125 105 142 0 5 4 10 9 12
19 7 130 151 124 162 -3 6 -3 8 2 4 11 -11 36 12 28 26 -3 6 -2 8 2 3 11 -9
56 33 49 45 -3 5 -1 7 4 6 5 -2 49 31 98 72 48 41 120 98 161 126 40 28 69 54
65 58 -4 4 -2 6 3 5 19 -6 55 12 49 24 -4 7 -4 9 0 5 4 -3 58 20 119 52 213
111 449 184 722 224 73 10 513 -2 590 -17z m1994 -212 c21 -20 46 -51 55 -69
22 -48 21 -117 -4 -148 -10 -14 -17 -28 -15 -32 3 -3 2 -4 -1 -2 -3 3 -31 -16
-61 -40 -30 -25 -59 -44 -63 -42 -4 2 -26 26 -48 55 l-41 51 55 42 c55 41 67
71 32 78 -21 4 -270 -187 -261 -201 4 -6 1 -7 -6 -2 -16 9 -61 -32 -61 -57 0
-30 32 -21 96 26 52 39 61 43 75 30 8 -8 19 -11 24 -7 4 5 5 2 1 -4 -4 -7 4
-27 18 -46 15 -19 26 -36 26 -39 0 -8 -113 -94 -147 -112 -71 -36 -147 -10
-200 68 -25 37 -33 59 -33 93 0 78 26 109 220 258 154 119 183 135 247 135 47
0 58 -4 92 -35z m-4506 -109 c71 -42 133 -73 139 -70 6 4 8 3 5 -2 -3 -6 53
-45 124 -87 71 -43 129 -82 129 -86 0 -11 -69 -101 -77 -101 -3 0 -25 11 -49
25 l-43 25 -20 -26 c-22 -28 -27 -44 -13 -44 4 0 22 -14 40 -30 l33 -30 -38
-55 c-21 -30 -41 -54 -44 -55 -4 0 -89 74 -190 164 -101 91 -187 162 -192 159
-6 -3 -7 -2 -4 4 6 10 -102 110 -114 106 -24 -8 7 58 61 131 l64 85 30 -18
c17 -10 89 -53 159 -95z m482 -215 c3 -5 2 -12 -3 -15 -5 -3 -9 1 -9 9 0 17 3
19 12 6z m-854 -61 c53 -27 58 -33 49 -50 -6 -11 -8 -26 -4 -32 4 -7 3 -8 -4
-4 -7 4 -12 1 -12 -6 0 -7 107 -69 238 -137 130 -68 238 -125 240 -126 5 -4
-57 -125 -64 -125 -6 0 -354 179 -441 226 l-42 23 -22 -35 c-11 -19 -24 -34
-28 -32 -57 27 -112 61 -109 68 6 17 133 260 136 260 1 0 30 -14 63 -30z
m5116 11 c40 -25 81 -95 88 -152 10 -76 -20 -111 -155 -187 -283 -158 -332
-175 -404 -143 -25 10 -47 17 -50 15 -3 -2 -4 -1 -1 2 2 4 -4 19 -13 33 -81
119 -49 204 107 289 28 16 48 32 44 37 -5 4 -2 5 5 1 7 -4 18 -3 25 2 7 5 61
35 120 66 122 63 176 72 234 37z m-3889 -3304 c62 -44 115 -83 118 -88 5 -9
-48 -93 -67 -104 -5 -4 -21 0 -34 9 -13 9 -29 16 -34 16 -5 0 -78 -96 -161
-212 -84 -117 -156 -214 -161 -216 -5 -2 -33 14 -64 36 l-55 39 75 103 c41 57
71 108 68 113 -3 6 -2 8 3 5 7 -5 158 192 172 223 2 4 -13 17 -33 29 -20 13
-33 25 -28 29 21 14 72 95 66 104 -9 14 7 4 135 -86z m2595 -117 c19 -16 37
-27 41 -25 3 3 4 2 2 -1 -2 -3 11 -35 30 -70 35 -67 41 -98 24 -124 -7 -11 -2
-17 23 -25 23 -7 42 -26 70 -73 49 -81 130 -229 121 -219 -4 4 -31 -7 -59 -23
-29 -17 -57 -30 -62 -30 -5 0 -39 54 -77 121 -37 66 -74 123 -82 126 -38 14
-28 -20 41 -142 41 -71 71 -133 67 -136 -4 -4 -32 -21 -63 -38 l-55 -31 -124
218 c-69 119 -131 228 -138 242 -7 14 -27 49 -44 79 l-32 55 23 15 c13 9 62
37 109 63 104 57 137 60 185 18z m-2314 -56 c58 -31 110 -59 114 -63 10 -10
-43 -121 -58 -121 -5 0 -33 13 -61 28 l-51 29 -26 -48 c-15 -26 -27 -51 -27
-55 0 -5 24 -22 54 -38 l55 -29 -29 -57 c-16 -32 -36 -60 -45 -64 -9 -3 -14
-2 -11 2 4 7 -73 52 -89 52 -5 0 -65 -115 -65 -125 0 -2 27 -18 60 -35 l60
-30 -30 -60 c-17 -33 -34 -60 -38 -60 -6 0 -239 117 -250 125 -2 2 42 90 97
197 56 107 97 199 93 203 -4 5 -2 6 4 2 6 -3 32 39 62 99 29 57 57 104 64 104
6 0 59 -25 117 -56z m1916 -73 c-8 -14 27 -81 38 -74 6 3 7 1 4 -4 -4 -6 49
-129 118 -273 69 -144 125 -266 125 -270 0 -7 -121 -53 -125 -47 -2 1 -12 23
-23 49 -20 47 -21 47 -51 37 -42 -15 -43 -19 -25 -73 9 -26 15 -48 13 -50 -17
-12 -125 -44 -130 -38 -11 12 -171 643 -166 655 3 7 49 27 103 46 55 19 103
38 109 42 12 12 18 11 10 0z m-1596 -58 c75 -24 121 -77 121 -140 0 -26 -10
-77 -22 -115 -19 -60 -24 -67 -42 -61 -12 4 -29 7 -38 7 -10 0 -18 3 -18 7 0
4 -13 10 -30 14 -16 4 -30 9 -30 12 0 3 10 32 21 64 22 60 20 89 -5 89 -21 0
-32 -23 -92 -204 -61 -182 -65 -209 -31 -204 18 2 27 17 46 73 13 39 25 72 27
74 4 5 134 -40 134 -47 0 -3 -12 -42 -27 -86 -20 -57 -39 -91 -65 -118 -35
-35 -43 -38 -93 -38 -102 0 -177 56 -192 143 -4 24 12 84 57 223 35 104 71
205 80 224 23 45 59 79 96 90 42 12 46 12 103 -7z m346 -202 c3 -64 7 -127 8
-141 1 -14 11 35 21 108 l19 132 72 -2 71 -3 -8 -50 c-4 -27 -28 -180 -53
-339 -25 -159 -47 -291 -49 -294 -3 -2 -34 -1 -70 3 l-66 7 -1 42 c-1 22 -4
93 -8 156 l-6 115 -18 -125 c-27 -189 -19 -173 -91 -165 -33 3 -64 9 -68 13
-6 6 85 633 96 667 3 8 26 8 74 1 l70 -9 7 -116z m902 109 c40 -24 59 -61 78
-151 18 -84 18 -84 -63 -94 -62 -8 -67 -4 -77 60 -3 23 -12 51 -20 61 -12 17
-15 17 -29 4 -14 -14 -13 -32 15 -180 40 -222 46 -242 67 -238 19 4 23 60 9
134 l-8 42 67 11 c51 9 69 9 74 0 14 -22 33 -159 27 -195 -6 -33 -47 -108 -55
-99 -2 2 -19 -3 -37 -11 -50 -21 -133 -18 -172 6 -18 10 -41 36 -52 58 -28 55
-95 423 -86 479 7 49 45 99 90 119 46 20 134 17 172 -6z m-407 -38 c22 -12 43
-34 57 -63 20 -41 22 -61 25 -269 3 -218 2 -226 -20 -268 -58 -109 -236 -109
-294 0 -22 42 -23 51 -23 285 0 229 1 243 21 270 45 61 160 84 234 45z"/>
<path d="M4450 8057 c0 -7 7 -34 16 -59 12 -37 19 -45 35 -41 23 6 25 42 4 83
-16 30 -55 42 -55 17z"/>
<path d="M6641 7754 c-39 -64 -71 -120 -71 -124 0 -12 32 -22 41 -13 11 11
112 253 105 253 -2 0 -35 -52 -75 -116z"/>
<path d="M5435 6770 c-71 -8 -225 -38 -225 -44 0 -1 39 -2 88 -3 205 -2 458
-145 528 -298 28 -61 28 -98 1 -171 -12 -31 -13 -50 -6 -80 6 -21 11 -44 12
-51 1 -6 -92 -98 -208 -203 -115 -106 -226 -208 -246 -227 l-37 -35 -188 163
c-104 89 -191 163 -192 165 -2 1 20 98 49 215 28 117 48 214 43 216 -5 2 -133
77 -284 167 -253 152 -276 163 -292 149 -10 -9 -15 -20 -12 -24 3 -5 -1 -6 -8
-4 -7 3 -39 -20 -70 -52 l-57 -58 165 -150 c147 -134 164 -153 159 -175 -4
-14 -17 -61 -31 -105 l-25 -81 -115 -29 -114 -29 -43 40 c-23 22 -97 91 -164
153 l-122 113 -76 -68 c-41 -37 -75 -69 -75 -72 0 -11 43 -62 49 -58 4 3 8 -1
8 -8 0 -13 305 -420 323 -431 8 -5 90 7 370 55 30 6 63 10 74 10 18 0 289
-258 284 -270 -2 -4 -78 -73 -170 -154 -94 -82 -165 -153 -161 -159 3 -6 1 -7
-5 -3 -15 9 -584 -492 -575 -506 3 -7 1 -8 -5 -4 -7 4 -35 -14 -67 -45 -62
-58 -76 -98 -52 -145 15 -28 169 -176 252 -242 49 -38 128 -58 170 -42 16 6
79 59 139 119 154 150 674 651 771 743 l80 76 108 -105 c65 -64 111 -102 118
-97 7 4 9 3 6 -3 -7 -10 647 -658 727 -722 48 -38 98 -55 162 -54 121 1 234
108 234 220 -1 83 -20 105 -341 384 -385 333 -732 635 -777 675 l-35 30 144
133 c79 73 143 137 142 142 -2 5 1 8 6 6 5 -1 52 37 105 85 l96 87 47 -25 c44
-23 55 -25 124 -20 115 9 134 3 212 -77 l68 -70 -31 -32 c-24 -24 -30 -40 -30
-73 0 -81 95 -149 171 -123 35 12 254 206 276 245 49 85 -67 203 -166 168 -28
-10 -33 -8 -68 31 -21 23 -41 41 -46 39 -5 -1 -6 2 -2 7 8 14 -49 126 -97 188
-43 57 -400 395 -482 457 -161 121 -375 172 -611 146z m866 -397 c13 -16 12
-17 -3 -4 -10 7 -18 15 -18 17 0 8 8 3 21 -13z m266 -1941 c12 -7 27 -30 34
-50 10 -30 9 -40 -6 -68 -51 -95 -196 -72 -195 30 1 53 19 85 61 106 35 17 55
14 106 -18z"/>
<path d="M3135 7033 c11 -11 63 -56 116 -101 92 -78 97 -81 113 -63 20 22 25
18 -114 103 -135 82 -139 85 -115 61z"/>
<path d="M7735 6646 c-131 -71 -171 -97 -173 -114 -6 -39 35 -26 198 63 196
106 199 108 181 129 -7 9 -19 16 -25 15 -6 0 -87 -42 -181 -93z"/>
<path d="M6591 3311 c-11 -7 -10 -14 5 -39 10 -17 22 -28 27 -25 6 3 7 1 3 -5
-4 -7 -3 -19 1 -27 8 -13 11 -13 28 -1 20 14 20 15 -2 60 -23 46 -36 54 -62
37z"/>
<path d="M6243 3095 c3 -11 20 -72 38 -135 18 -63 35 -119 39 -123 4 -4 16 -4
28 0 21 8 20 12 -39 138 -60 128 -77 160 -66 120z"/>
<path d="M5440 2995 c-19 -23 -10 -403 10 -415 34 -21 40 6 40 196 0 212 -12
265 -50 219z"/>
</g>
</svg>
